<?xml version="1.0" encoding="utf-8"?>
<!-- Generator: Adobe Illustrator 26.0.2, SVG Export Plug-In . SVG Version: 6.00 Build 0)  -->
<svg version="1.1" id="图层_1" xmlns="http://www.w3.org/2000/svg" xmlns:xlink="http://www.w3.org/1999/xlink" x="0px" y="0px"
	 viewBox="0 0 512 512" style="enable-background:new 0 0 512 512;" xml:space="preserve">
<style type="text/css">
	.st0{fill:url(#SVGID_1_);}
	.st1{fill:#FFFFFF;}
</style>
<linearGradient id="SVGID_1_" gradientUnits="userSpaceOnUse" x1="34.2605" y1="127.9786" x2="477.7395" y2="384.0214">
	<stop  offset="0" style="stop-color:#06A7F7"/>
	<stop  offset="0.2598" style="stop-color:#059FEE"/>
	<stop  offset="0.6902" style="stop-color:#0289D4"/>
	<stop  offset="1" style="stop-color:#0075BE"/>
</linearGradient>
<circle class="st0" cx="256" cy="256" r="256"/>
<path class="st1" d="M405,179h-61.72c-5.7,0-10.29-4.59-10.29-10.29V107c0-4.16,2.49-7.93,6.34-9.51c3.86-1.59,8.27-0.73,11.23,2.23
	l17.14,17.14l31.42-31.42c1.59-1.59,3.69-2.44,5.87-2.44s4.29,0.86,5.87,2.44l15.73,15.73c1.54,1.54,2.4,3.64,2.4,5.83
	s-0.86,4.29-2.44,5.87l-31.42,31.42l17.14,17.14c2.96,2.96,3.81,7.37,2.23,11.23C412.93,176.51,409.16,179,405,179z"/>
<path class="st1" d="M405,333c4.16,0,7.93,2.49,9.51,6.34s0.73,8.27-2.23,11.23l-17.14,17.14l31.46,31.46
	c1.54,1.54,2.44,3.64,2.44,5.87c0,2.23-0.86,4.29-2.44,5.87l-15.73,15.73c-1.59,1.5-3.69,2.36-5.87,2.36s-4.29-0.86-5.87-2.44
	l-31.42-31.42l-17.14,17.14c-2.96,2.96-7.37,3.81-11.23,2.23S333,409.16,333,405v-61.72c0-5.7,4.59-10.29,10.29-10.29H405z"/>
<path class="st1" d="M169.71,333c5.7,0,10.29,4.59,10.29,10.29V405c0,4.16-2.49,7.93-6.34,9.51c-3.86,1.59-8.27,0.73-11.23-2.23
	l-17.14-17.14l-31.42,31.42c-1.59,1.59-3.69,2.44-5.87,2.44s-4.29-0.86-5.87-2.44l-15.69-15.69C84.85,409.29,84,407.19,84,405
	s0.86-4.29,2.44-5.87l31.42-31.42l-17.14-17.14c-2.96-2.96-3.81-7.37-2.23-11.23c1.59-3.86,5.36-6.34,9.51-6.34H169.71z"/>
<path class="st1" d="M107.5,178.5c-4.16,0-7.93-2.49-9.51-6.34c-1.59-3.86-0.73-8.27,2.23-11.23l17.14-17.14l-31.42-31.42
	c-1.59-1.59-2.44-3.69-2.44-5.87s0.86-4.29,2.44-5.87l15.69-15.69c1.59-1.59,3.69-2.44,5.87-2.44s4.29,0.86,5.87,2.44l31.42,31.42
	l17.14-17.14c2.96-2.96,7.37-3.81,11.23-2.23c3.86,1.59,6.34,5.36,6.34,9.51v61.72c0,5.7-4.59,10.29-10.29,10.29H107.5z"/>
<path class="st1" d="M212.67,327.9c-3.03,0-5.52-2.48-5.52-5.52V189.99c0-3.03,2.48-5.52,5.52-5.52h55.16v27.58
	c0,6.1,4.93,11.03,11.03,11.03h27.58v99.3c0,3.03-2.48,5.52-5.52,5.52H212.67z M212.67,167.93c-12.17,0-22.07,9.9-22.07,22.07
	v132.39c0,12.17,9.9,22.07,22.07,22.07h88.26c12.17,0,22.07-9.9,22.07-22.07V221.19c0-5.86-2.31-11.48-6.45-15.62l-31.24-31.2
	c-4.14-4.14-9.72-6.45-15.58-6.45H212.67z M245.77,256.19c0-6.09-4.94-11.03-11.03-11.03s-11.03,4.94-11.03,11.03
	c0,6.09,4.94,11.03,11.03,11.03S245.77,262.28,245.77,256.19z M269.63,272.36c-1.03-1.48-2.72-2.38-4.55-2.38
	c-1.83,0-3.52,0.9-4.55,2.38l-14.24,20.58l-4.1-6.59c-1-1.62-2.79-2.59-4.69-2.59s-3.65,0.97-4.69,2.59l-13.79,22.07
	c-1.07,1.69-1.1,3.83-0.14,5.59c0.97,1.76,2.83,2.83,4.83,2.83h16.55h11.03h13.79h24.82c2.07,0,3.93-1.14,4.9-2.97
	c0.97-1.83,0.83-4-0.34-5.69l-24.82-35.86V272.36z"/>
</svg>
