<?xml version="1.0" encoding="utf-8"?>
<!-- Generator: Adobe Illustrator 26.0.2, SVG Export Plug-In . SVG Version: 6.00 Build 0)  -->
<svg version="1.1" id="图层_1" xmlns="http://www.w3.org/2000/svg" xmlns:xlink="http://www.w3.org/1999/xlink" x="0px" y="0px"
	 viewBox="0 0 512 512" style="enable-background:new 0 0 512 512;" xml:space="preserve">
<style type="text/css">
	.st0{fill:#FF292F;}
	.st1{fill:#00E33D;}
	.st2{fill:#005ADA;}
	.st3{fill:#FFFFFF;}
</style>
<polygon class="st0" points="255.5,62.26 348.5,34.5 260.5,6.5 167.5,31.5 "/>
<polygon class="st0" points="100,240 94,110 203,78 115,45 10,74 18,200 "/>
<polygon class="st1" points="23,259 105,306 108,420 30,370 "/>
<polygon class="st1" points="147,330 243,384 348,334 344,454 243,509 149,450 "/>
<polygon class="st2" points="395,311 391,428 476,380 484,269 "/>
<polygon class="st2" points="302,80 406,115 400,248 490,208 499,83 395,48 "/>
<polygon class="st3" points="252,94 356,134 350.52,269 243,319 143,267 138,130 "/>
</svg>
